<mxfile host="65bd71144e">
    <diagram id="bzrqZz6E3TQKWJpJ5EC_" name="General">
        <mxGraphModel dx="1033" dy="701" grid="1" gridSize="10" guides="1" tooltips="1" connect="1" arrows="1" fold="1" page="1" pageScale="1" pageWidth="827" pageHeight="1169" math="0" shadow="0">
            <root>
                <mxCell id="0"/>
                <mxCell id="1" parent="0"/>
            </root>
        </mxGraphModel>
    </diagram>
    <diagram id="awHu2TWaMnq9VCL83vCx" name="ER">
        <mxGraphModel dx="590" dy="401" grid="1" gridSize="10" guides="1" tooltips="1" connect="1" arrows="1" fold="1" page="1" pageScale="1" pageWidth="827" pageHeight="1169" math="0" shadow="0">
            <root>
                <mxCell id="dbygUn613iR1ThlrCEpY-0"/>
                <mxCell id="dbygUn613iR1ThlrCEpY-1" parent="dbygUn613iR1ThlrCEpY-0"/>
            </root>
        </mxGraphModel>
    </diagram>
</mxfile>